<svg xmlns="http://www.w3.org/2000/svg" viewBox="0 0 180 180" fill="none">
  <defs>
    <linearGradient id="grad" x1="0%" y1="0%" x2="100%" y2="100%">
      <stop offset="0%" style="stop-color:#3b82f6"/>
      <stop offset="100%" style="stop-color:#8b5cf6"/>
    </linearGradient>
  </defs>
  <!-- Background -->
  <rect width="180" height="180" rx="40" fill="#0f172a"/>
  <rect width="180" height="180" rx="40" fill="url(#grad)" opacity="0.15"/>
  <!-- Cloud -->
  <path 
    d="M124 115H68c-11 0-20-9-20-20 0-9.7 7-17.8 16.2-19.5C66.5 64.5 76.3 58 88 58c13 0 23.8 9.2 26.3 21.4 0.6 0 1.2-0.1 1.7-0.1 9 0 16.3 7.3 16.3 16.3 0 1.2-0.1 2.4-0.4 3.5 5.5 2.2 9.4 7.6 9.4 13.9 0 8.3-6.7 15-15 15h-2.3" 
    stroke="url(#grad)" 
    stroke-width="7" 
    fill="none" 
    stroke-linecap="round" 
    stroke-linejoin="round"
  />
  <!-- Upload arrow -->
  <path 
    d="M90 138V108M90 108l-12 12M90 108l12 12" 
    stroke="url(#grad)" 
    stroke-width="7" 
    stroke-linecap="round" 
    stroke-linejoin="round"
  />
</svg>
